<svg width="184" height="64" viewBox="0 0 184 64" fill="none" xmlns="http://www.w3.org/2000/svg">
<path fill-rule="evenodd" clip-rule="evenodd" d="M49.0126 9.2816V7.20316L43.267 9.33873H43.2561V11.4716H43.267L49.0126 13.6072V11.526L46.0664 10.3997L49.0126 9.27888V9.2816Z" fill="#F7DD43"/>
<path fill-rule="evenodd" clip-rule="evenodd" d="M82.2922 13.5037V11.4253L85.2358 10.3072L82.2922 9.18905V7.1106L88.0297 9.24618H88.0433V11.3817H88.0297L82.2922 13.5064V13.5037ZM79.8275 4.16977L76.4541 15H78.4564L81.8298 4.16977H79.8275Z" fill="#F7DD43"/>
<path fill-rule="evenodd" clip-rule="evenodd" d="M57.4544 6.91747C58.0257 7.54317 58.3249 8.3702 58.2896 9.21627V13.8302H56.2873V9.64066C56.3118 9.17274 56.1621 8.7157 55.8683 8.35116C55.5908 8.02742 55.1801 7.84787 54.7529 7.86691C53.4988 7.86691 52.8704 8.73746 52.8704 10.4758V13.8302H50.8681V6.25639H52.8704V6.93923C53.507 6.32168 54.3694 5.99251 55.2562 6.03059C56.0833 5.99523 56.8831 6.31896 57.4544 6.91747Z" fill="#F7DD43"/>
<path fill-rule="evenodd" clip-rule="evenodd" d="M60.8413 3V13.8302H62.8436V3H60.8413Z" fill="#F7DD43"/>
<path fill-rule="evenodd" clip-rule="evenodd" d="M74.1661 13.8302H72.4958L70.858 9.36862L69.204 13.8302H67.5336L64.7261 6.2428H66.8671L68.445 10.7806L70.0718 6.2428H71.6361L73.2629 10.7942L74.8408 6.2428H76.9818L74.1716 13.8302H74.1661Z" fill="#F7DD43"/>
<path d="M97.5795 17.9981C95.6532 17.9981 93.6294 17.6331 92.0433 16.754V1.24411C93.6046 0.389878 95.6284 2.85548e-05 97.5795 2.85548e-05C99.5307 2.85548e-05 101.507 0.365035 103.066 1.24411V7.19505H99.1389V3.14558C98.6765 2.95066 98.1146 2.87804 97.5547 2.87804C96.9947 2.87804 96.4807 2.95066 95.9934 3.14558V14.8525C96.4558 15.0475 96.9928 15.1201 97.5547 15.1201C98.1165 15.1201 98.6516 15.0475 99.1389 14.8525V10.805H103.066V16.7559C101.53 17.6101 99.5058 17.9752 97.5795 18V17.9981Z" fill="#F7DD43"/>
<path d="M110.431 17.9981C108.358 17.9981 106.359 17.5585 104.773 16.6565V1.3167C106.334 0.439536 108.335 0 110.431 0C112.528 0 114.479 0.414693 116.04 1.3167V16.6565C114.504 17.5585 112.48 17.9732 110.431 17.9981ZM112.115 3.19524C111.652 3.00031 111.091 2.90285 110.408 2.90285C109.726 2.90285 109.189 3.00031 108.725 3.19524V14.7799C109.187 14.9997 109.749 15.0971 110.408 15.0971C111.068 15.0971 111.628 14.9997 112.115 14.7799V3.19524Z" fill="#F7DD43"/>
<path d="M122.893 11.4127H121.844V17.7783H117.869V0.219779H122.893C125.284 0.219779 127.088 0.707092 128.502 1.70656V9.92589C127.113 10.9024 125.282 11.4127 122.893 11.4127ZM124.552 3.24303C124.187 2.97548 123.698 2.85318 122.868 2.85318H121.794V8.77927H122.868C123.673 8.77927 124.16 8.65697 124.552 8.41427V3.24303Z" fill="#F7DD43"/>
<path d="M136.817 17.7783V11.4127H133.891V17.7783H129.941V1.29185C131.38 0.437625 133.404 0 135.355 0C137.306 0 139.305 0.439537 140.744 1.29185V17.7783H136.817ZM136.817 3.04809C136.402 2.85316 135.89 2.7557 135.353 2.7557C134.816 2.7557 134.304 2.85316 133.889 3.04809V8.63211H136.815V3.04809H136.817Z" fill="#F7DD43"/>
<path d="M15.2129 47.9248H19.5928C19.5049 49.3604 19.1094 50.6348 18.4062 51.748C17.7129 52.8613 16.7412 53.7305 15.4912 54.3555C14.251 54.9805 12.7568 55.293 11.0088 55.293C9.6416 55.293 8.41602 55.0586 7.33203 54.5898C6.24805 54.1113 5.32031 53.4277 4.54883 52.5391C3.78711 51.6504 3.20605 50.5762 2.80566 49.3164C2.40527 48.0566 2.20508 46.6455 2.20508 45.083V43.6035C2.20508 42.041 2.41016 40.6299 2.82031 39.3701C3.24023 38.1006 3.83594 37.0215 4.60742 36.1328C5.38867 35.2441 6.32129 34.5605 7.40527 34.082C8.48926 33.6035 9.7002 33.3643 11.0381 33.3643C12.8154 33.3643 14.3145 33.6865 15.5352 34.3311C16.7656 34.9756 17.7178 35.8643 18.3916 36.9971C19.0752 38.1299 19.4854 39.4189 19.6221 40.8643H15.2275C15.1787 40.0049 15.0078 39.2773 14.7148 38.6816C14.4219 38.0762 13.9775 37.6221 13.3818 37.3193C12.7959 37.0068 12.0146 36.8506 11.0381 36.8506C10.3057 36.8506 9.66602 36.9873 9.11914 37.2607C8.57227 37.5342 8.11328 37.9492 7.74219 38.5059C7.37109 39.0625 7.09277 39.7656 6.90723 40.6152C6.73145 41.4551 6.64355 42.4414 6.64355 43.5742V45.083C6.64355 46.1865 6.72656 47.1582 6.89258 47.998C7.05859 48.8281 7.3125 49.5312 7.6543 50.1074C8.00586 50.6738 8.45508 51.1035 9.00195 51.3965C9.55859 51.6797 10.2275 51.8213 11.0088 51.8213C11.9268 51.8213 12.6836 51.6748 13.2793 51.3818C13.875 51.0889 14.3291 50.6543 14.6416 50.0781C14.9639 49.502 15.1543 48.7842 15.2129 47.9248ZM31.1504 37.3193L25.3496 55H20.6768L28.6016 33.6719H31.5752L31.1504 37.3193ZM35.9697 55L30.1543 37.3193L29.6855 33.6719H32.6885L40.6572 55H35.9697ZM35.7061 47.0605V50.5029H24.4414V47.0605H35.7061ZM56.3457 51.5723V55H45.6084V51.5723H56.3457ZM47.0293 33.6719V55H42.6348V33.6719H47.0293ZM73.1768 51.5723V55H61.8242V51.5723H73.1768ZM63.2598 33.6719V55H58.8652V33.6719H63.2598ZM71.6973 42.3584V45.6982H61.8242V42.3584H71.6973ZM73.1621 33.6719V37.1143H61.8242V33.6719H73.1621ZM93.0986 33.6719V55H88.7041L80.1348 40.7031V55H75.7402V33.6719H80.1348L88.7188 47.9834V33.6719H93.0986ZM103.47 55H98.8262L98.8555 51.5723H103.47C104.622 51.5723 105.594 51.3135 106.385 50.7959C107.176 50.2686 107.771 49.502 108.172 48.4961C108.582 47.4902 108.787 46.2744 108.787 44.8486V43.8086C108.787 42.7148 108.67 41.7529 108.436 40.9229C108.211 40.0928 107.874 39.3945 107.425 38.8281C106.976 38.2617 106.424 37.8369 105.77 37.5537C105.115 37.2607 104.363 37.1143 103.514 37.1143H98.7383V33.6719H103.514C104.939 33.6719 106.243 33.916 107.425 34.4043C108.616 34.8828 109.646 35.5713 110.516 36.4697C111.385 37.3682 112.054 38.4424 112.522 39.6924C113.001 40.9326 113.24 42.3145 113.24 43.8379V44.8486C113.24 46.3623 113.001 47.7441 112.522 48.9941C112.054 50.2441 111.385 51.3184 110.516 52.2168C109.656 53.1055 108.626 53.7939 107.425 54.2822C106.233 54.7607 104.915 55 103.47 55ZM101.316 33.6719V55H96.9219V33.6719H101.316ZM124.783 37.3193L118.982 55H114.31L122.234 33.6719H125.208L124.783 37.3193ZM129.603 55L123.787 37.3193L123.318 33.6719H126.321L134.29 55H129.603ZM129.339 47.0605V50.5029H118.074V47.0605H129.339ZM122.308 32.4707L125.179 27.959H129.764L125.735 32.4707H122.308ZM136.268 33.6719H144.222C145.853 33.6719 147.254 33.916 148.426 34.4043C149.607 34.8926 150.516 35.6152 151.15 36.5723C151.785 37.5293 152.103 38.7061 152.103 40.1025C152.103 41.2451 151.907 42.2266 151.517 43.0469C151.136 43.8574 150.594 44.5361 149.891 45.083C149.197 45.6201 148.382 46.0498 147.444 46.3721L146.053 47.1045H139.139L139.109 43.6768H144.251C145.022 43.6768 145.662 43.54 146.17 43.2666C146.678 42.9932 147.059 42.6123 147.312 42.124C147.576 41.6357 147.708 41.0693 147.708 40.4248C147.708 39.7412 147.581 39.1504 147.327 38.6523C147.073 38.1543 146.688 37.7734 146.17 37.5098C145.652 37.2461 145.003 37.1143 144.222 37.1143H140.662V55H136.268V33.6719ZM148.191 55L143.328 45.4932L147.972 45.4639L152.894 54.7949V55H148.191ZM160.159 33.6719V55H155.779V33.6719H160.159ZM181.795 43.8379V44.8486C181.795 46.4697 181.575 47.9248 181.136 49.2139C180.696 50.5029 180.076 51.6016 179.275 52.5098C178.475 53.4082 177.518 54.0967 176.404 54.5752C175.301 55.0537 174.075 55.293 172.728 55.293C171.39 55.293 170.164 55.0537 169.051 54.5752C167.947 54.0967 166.99 53.4082 166.18 52.5098C165.369 51.6016 164.739 50.5029 164.29 49.2139C163.851 47.9248 163.631 46.4697 163.631 44.8486V43.8379C163.631 42.207 163.851 40.752 164.29 39.4727C164.729 38.1836 165.35 37.085 166.15 36.1768C166.961 35.2686 167.918 34.5752 169.021 34.0967C170.135 33.6182 171.36 33.3789 172.698 33.3789C174.046 33.3789 175.271 33.6182 176.375 34.0967C177.488 34.5752 178.445 35.2686 179.246 36.1768C180.057 37.085 180.682 38.1836 181.121 39.4727C181.57 40.752 181.795 42.207 181.795 43.8379ZM177.356 44.8486V43.8086C177.356 42.6758 177.254 41.6797 177.049 40.8203C176.844 39.9609 176.541 39.2383 176.141 38.6523C175.74 38.0664 175.252 37.627 174.676 37.334C174.1 37.0312 173.44 36.8799 172.698 36.8799C171.956 36.8799 171.297 37.0312 170.721 37.334C170.154 37.627 169.671 38.0664 169.271 38.6523C168.88 39.2383 168.582 39.9609 168.377 40.8203C168.172 41.6797 168.069 42.6758 168.069 43.8086V44.8486C168.069 45.9717 168.172 46.9678 168.377 47.8369C168.582 48.6963 168.885 49.4238 169.285 50.0195C169.686 50.6055 170.174 51.0498 170.75 51.3525C171.326 51.6553 171.985 51.8066 172.728 51.8066C173.47 51.8066 174.129 51.6553 174.705 51.3525C175.281 51.0498 175.765 50.6055 176.155 50.0195C176.546 49.4238 176.844 48.6963 177.049 47.8369C177.254 46.9678 177.356 45.9717 177.356 44.8486Z" fill="url(#paint0_linear_406_1087)"/>
<defs>
<linearGradient id="paint0_linear_406_1087" x1="92" y1="26" x2="92" y2="64" gradientUnits="userSpaceOnUse">
<stop stop-color="white"/>
<stop offset="1" stop-color="#D9D9D9" stop-opacity="0.8"/>
</linearGradient>
</defs>
</svg>
